<svg width="40" height="40" viewBox="0 0 40 40" fill="none" xmlns="http://www.w3.org/2000/svg">
<path d="M4.16912 35.1926C4.16912 35.5464 4.46441 35.8333 4.82869 35.8333L35.1679 35.8334C35.5322 35.8334 35.8275 35.5465 35.8275 35.1928V34.4276C35.8427 34.197 35.8735 33.0463 35.115 31.7741C34.6367 30.9719 33.9425 30.2789 33.0517 29.7144C31.974 29.0315 30.6031 28.5367 28.9449 28.2388C28.9327 28.2372 27.7032 28.0742 26.4436 27.7525C24.2502 27.1923 24.0584 26.6964 24.0572 26.6916C24.0443 26.6426 24.0256 26.5955 24.0017 26.5513C23.9838 26.4588 23.9394 26.1107 24.0242 25.178C24.2394 22.8092 25.51 21.4092 26.531 20.2844C26.853 19.9296 27.1571 19.5945 27.3914 19.2659C28.4016 17.8484 28.4954 16.2366 28.4996 16.1367C28.4996 15.9343 28.4764 15.7679 28.4266 15.6136C28.3274 15.3049 28.1409 15.1126 28.0046 14.9722L28.0037 14.9712C27.9694 14.9359 27.9369 14.9024 27.9104 14.8716C27.9004 14.8599 27.8735 14.8288 27.8979 14.6692C27.9876 14.0818 28.0414 13.5899 28.0673 13.1214C28.1133 12.2865 28.1492 11.038 27.9339 9.82294C27.9073 9.61544 27.8616 9.39627 27.7905 9.13519C27.563 8.29847 27.1975 7.58311 26.6897 6.99272C26.6024 6.8977 24.479 4.66069 18.315 4.20169C17.4627 4.13824 16.6201 4.17242 15.7907 4.21481C15.5908 4.22469 15.317 4.23826 15.0609 4.30464C14.4244 4.46949 14.2546 4.87288 14.21 5.09864C14.1361 5.47259 14.266 5.76348 14.3519 5.956C14.3644 5.98391 14.3799 6.01846 14.3529 6.10833C14.2099 6.32992 13.9848 6.52969 13.7553 6.71896C13.6889 6.77534 12.1433 8.10809 12.0583 9.8491C11.8291 11.1732 11.8464 13.2362 12.1174 14.662C12.1332 14.7408 12.1564 14.8574 12.1187 14.9361C11.8273 15.1973 11.4969 15.4933 11.4978 16.1687C11.5013 16.2366 11.595 17.8484 12.6054 19.2659C12.8394 19.5943 13.1432 19.9291 13.4649 20.2836L13.4657 20.2844C14.4867 21.4092 15.7573 22.8092 15.9725 25.1779C16.0572 26.1106 16.0129 26.4588 15.9949 26.5512C15.971 26.5954 15.9524 26.6425 15.9395 26.6915C15.9382 26.6964 15.7472 27.1906 13.5637 27.7497C12.304 28.0723 11.0639 28.2371 11.0269 28.2424C9.41552 28.5144 8.053 28.9969 6.97728 29.6763C6.08946 30.237 5.39397 30.9313 4.91009 31.7398C4.13699 33.0316 4.15789 34.2081 4.16912 34.4229V35.1926Z" stroke="#333333" stroke-width="1.66667" stroke-linejoin="round"/>
</svg>
