<svg width="32" height="32" viewBox="0 0 32 32" fill="none" xmlns="http://www.w3.org/2000/svg">
<g clip-path="url(#clip0_98_56)">
<path d="M10.8334 8.42444C10.038 7.5821 9.04337 7.10001 7.9845 6.92445L13.0135 1.89336C13.0137 1.89322 13.0138 1.89309 13.0139 1.89296C14.6548 0.255446 17.3085 0.256692 18.9419 1.89258L18.9424 1.89308L23.9168 6.86448C22.7232 7.0019 21.6127 7.53454 20.7485 8.39874L15.957 13.1902C15.8689 13.2608 15.7962 13.2765 15.7547 13.2766C15.7161 13.2768 15.673 13.265 15.6244 13.2155L15.6244 13.2155L15.6202 13.2112L10.8334 8.42444ZM13.6797 15.1454L13.6954 15.1611L13.7121 15.1757C14.1623 15.5697 14.7554 15.8949 15.4068 15.9883C14.768 16.0656 14.1523 16.3421 13.6791 16.8181C13.6788 16.8185 13.6784 16.8188 13.6781 16.8192L8.89573 21.5953C8.33953 22.106 7.7051 22.3727 7.03747 22.3727H5.3241L1.89261 18.9424L1.89234 18.9421C0.255887 17.3082 0.255887 14.6548 1.89234 13.0208L1.89302 13.0201L5.32444 9.58396H7.03747C7.70504 9.58396 8.33942 9.85058 8.89559 10.3613L13.6797 15.1454ZM17.8764 16.8112C17.4047 16.3395 16.7911 16.0649 16.1543 15.9881C16.8021 15.8945 17.3947 15.5689 17.8441 15.1757L17.8608 15.1611L17.8764 15.1454L22.6865 10.3353C22.6869 10.3349 22.6873 10.3345 22.6878 10.3341C23.1767 9.85081 23.8522 9.57146 24.5375 9.57146H26.6183L30.0672 13.0204C31.7013 14.6545 31.7013 17.3084 30.0672 18.9425L26.6183 22.3915H24.5375C23.852 22.3915 23.1772 22.112 22.6889 21.6237L17.8764 16.8112ZM15.6202 18.7517C15.6524 18.7195 15.7073 18.6933 15.7781 18.6933C15.8489 18.6933 15.9038 18.7195 15.936 18.7517L20.7485 23.5642C21.6115 24.4272 22.7201 24.9595 23.9119 25.0979L18.9455 30.0642C17.3107 31.6527 14.6516 31.6526 13.0168 30.0641L7.98022 25.0327C9.05085 24.8431 10.0405 24.3314 10.8264 23.5454L15.6202 18.7517Z" stroke="#868E96" stroke-width="1.33"/>
</g>
<defs>
<clipPath id="clip0_98_56">
<rect width="32" height="32" fill="white"/>
</clipPath>
</defs>
</svg>
