<svg width="33" height="32" viewBox="0 0 33 32" fill="none" xmlns="http://www.w3.org/2000/svg">
<path d="M24.5 24.6666L22.6394 28.9331C22.5335 29.1761 22.2935 29.3333 22.0283 29.3333H10.9717C10.7065 29.3333 10.4665 29.1761 10.3606 28.9331L8.5 24.6666" stroke="#333333" stroke-width="1.33333" stroke-linecap="round" stroke-linejoin="round"/>
<path d="M8.5 7.33328L10.3606 3.06679C10.4665 2.82374 10.7065 2.66661 10.9717 2.66661H22.0283C22.2935 2.66661 22.5335 2.82374 22.6394 3.06679L24.5 7.33328" stroke="#333333" stroke-width="1.33333" stroke-linecap="round" stroke-linejoin="round"/>
<path d="M8.5 7.99994C8.5 7.26354 9.09693 6.66661 9.83333 6.66661H23.1667C23.9031 6.66661 24.5 7.26354 24.5 7.99994V23.9999C24.5 24.7363 23.9031 25.3333 23.1667 25.3333H9.83333C9.09693 25.3333 8.5 24.7363 8.5 23.9999V7.99994Z" stroke="#333333" stroke-width="1.33333"/>
<path d="M9.16602 15L13.4301 14.3268C14.7694 14.1153 15.9965 13.4532 16.9085 12.4499C18.1248 11.112 19.8829 10.399 21.6875 10.5118L24.166 10.6667" stroke="#333333" stroke-width="1.33333" stroke-linecap="round" stroke-linejoin="round"/>
<path d="M8.83398 21.6667L12.536 21.4985C14.7861 21.3962 16.8143 20.1114 17.8681 18.1208C18.6965 16.5561 20.1396 15.4075 21.8503 14.9513L24.1673 14.3334" stroke="#333333" stroke-width="1.33333" stroke-linecap="round" stroke-linejoin="round"/>
<path d="M24.5 8V21.3333" stroke="#333333" stroke-width="1.33333" stroke-linecap="round" stroke-linejoin="round"/>
<path d="M8.5 10.6666V23.9999" stroke="#333333" stroke-width="1.33333" stroke-linecap="round" stroke-linejoin="round"/>
</svg>
