<svg width="329" height="274" viewBox="0 0 329 274" fill="none" xmlns="http://www.w3.org/2000/svg">
<path opacity="0.1" d="M326.859 186.815C317.901 141.504 265.416 105.29 255.179 58.0725C236.574 -2.00085 175.249 -11.4986 135.399 14.5913C72.2571 55.9309 139.617 66.1897 15.8154 163.997C-14.7539 188.147 -5.01317 294.754 91.1562 270.288C142.91 257.121 158.643 255.274 181.923 253.106C240.599 247.642 341.897 262.875 326.859 186.815Z" fill="#FA5252"/>
<path d="M217.782 225.564H87.2993C81.3424 225.564 75.5773 223.452 71.0228 219.601C66.4682 215.75 63.4175 210.408 62.4097 204.52L44.4785 99.7535H260.603L242.671 204.52C241.664 210.408 238.613 215.75 234.059 219.601C229.504 223.452 223.739 225.564 217.782 225.564Z" fill="#FA5252"/>
<path d="M261.07 89.6479H44.0112C38.8662 89.6479 34.6953 93.8313 34.6953 98.9918C34.6953 104.152 38.8662 108.336 44.0112 108.336H261.07C266.215 108.336 270.386 104.152 270.386 98.9918C270.386 93.8313 266.215 89.6479 261.07 89.6479Z" fill="white"/>
<path d="M261.072 109.073H44.0108C41.3454 109.073 38.7892 108.011 36.9045 106.121C35.0198 104.23 33.9609 101.666 33.9609 98.9931C33.9609 96.3197 35.0198 93.7557 36.9045 91.8654C38.7892 89.975 41.3454 88.913 44.0108 88.913H261.072C263.738 88.913 266.294 89.975 268.179 91.8654C270.063 93.7557 271.122 96.3197 271.122 98.9931C271.122 101.666 270.063 104.23 268.179 106.121C266.294 108.011 263.738 109.073 261.072 109.073ZM44.0132 90.3867C41.7375 90.3867 39.555 91.2934 37.9458 92.9074C36.3366 94.5214 35.4326 96.7105 35.4326 98.9931C35.4326 101.276 36.3366 103.465 37.9458 105.079C39.555 106.693 41.7375 107.599 44.0132 107.599H261.072C263.348 107.599 265.531 106.693 267.14 105.079C268.749 103.465 269.653 101.276 269.653 98.9931C269.653 96.7105 268.749 94.5214 267.14 92.9074C265.531 91.2934 263.348 90.3867 261.072 90.3867H44.0132Z" fill="#262626"/>
<path d="M181.283 93.2578C178.857 96.3178 179.363 100.772 182.413 103.206C185.464 105.64 189.905 105.132 192.331 102.072L233.873 49.6879C236.3 46.6279 235.794 42.1741 232.743 39.7401C229.692 37.3062 225.252 37.8137 222.825 40.8737L181.283 93.2578Z" fill="white"/>
<path d="M186.79 105.484C185.032 105.485 183.326 104.885 181.954 103.783C180.338 102.492 179.3 100.61 179.066 98.5508C178.832 96.4918 179.422 94.4239 180.706 92.8007L222.248 40.4159C222.885 39.6126 223.673 38.943 224.568 38.4453C225.464 37.9477 226.448 37.6317 227.464 37.5156C228.481 37.3994 229.511 37.4852 230.495 37.7682C231.479 38.0512 232.397 38.5257 233.198 39.1647C233.999 39.8038 234.667 40.5948 235.163 41.4926C235.659 42.3904 235.974 43.3774 236.09 44.3974C236.206 45.4173 236.12 46.4501 235.838 47.4368C235.556 48.4235 235.083 49.3449 234.446 50.1482L192.905 102.532C192.27 103.338 191.481 104.009 190.586 104.507C189.69 105.004 188.705 105.319 187.688 105.433C187.389 105.467 187.09 105.484 186.79 105.484ZM182.868 102.63C183.518 103.149 184.264 103.534 185.062 103.764C185.86 103.993 186.696 104.063 187.521 103.969C188.346 103.874 189.145 103.618 189.871 103.214C190.598 102.81 191.238 102.267 191.755 101.615L233.295 49.2298C233.812 48.578 234.197 47.8304 234.426 47.0296C234.655 46.2289 234.724 45.3908 234.63 44.5631C234.536 43.7355 234.281 42.9345 233.878 42.2058C233.476 41.4772 232.934 40.8352 232.284 40.3166C231.634 39.7979 230.889 39.4127 230.091 39.183C229.292 38.9533 228.457 38.8835 227.632 38.9777C226.806 39.0719 226.008 39.3281 225.281 39.7319C224.555 40.1356 223.915 40.6789 223.398 41.3308L181.856 93.715C180.814 95.0322 180.335 96.7102 180.525 98.381C180.715 100.052 181.557 101.579 182.868 102.627V102.63Z" fill="#262626"/>
<path d="M186.334 100.93C187.803 100.93 188.994 99.7351 188.994 98.2616C188.994 96.7881 187.803 95.5936 186.334 95.5936C184.865 95.5936 183.674 96.7881 183.674 98.2616C183.674 99.7351 184.865 100.93 186.334 100.93Z" fill="white"/>
<path d="M186.341 101.667C185.839 101.667 185.343 101.556 184.889 101.341C184.434 101.126 184.033 100.813 183.714 100.424C183.395 100.035 183.166 99.5802 183.043 99.0919C182.92 98.6035 182.906 98.0938 183.003 97.5996C183.129 96.9674 183.43 96.3839 183.873 95.9168C184.316 95.4498 184.882 95.1184 185.505 94.9612C186.128 94.8041 186.783 94.8276 187.393 95.0291C188.004 95.2306 188.545 95.6018 188.953 96.0994C189.361 96.5971 189.62 97.2008 189.7 97.8403C189.78 98.4799 189.677 99.129 189.403 99.7122C189.13 100.295 188.697 100.789 188.155 101.135C187.612 101.481 186.984 101.665 186.341 101.667ZM184.445 97.8861C184.358 98.3245 184.426 98.7795 184.636 99.1736C184.846 99.5677 185.186 99.8765 185.597 100.047C186.009 100.218 186.467 100.241 186.894 100.111C187.32 99.9811 187.688 99.7069 187.936 99.3352C188.183 98.9635 188.294 98.5172 188.251 98.0724C188.207 97.6276 188.01 97.2119 187.695 96.896C187.38 96.5801 186.965 96.3836 186.522 96.3401C186.078 96.2965 185.633 96.4085 185.263 96.657C184.839 96.9419 184.545 97.3839 184.445 97.8861Z" fill="#262626"/>
<path d="M82.2584 40.8739C79.8318 37.8139 75.3913 37.3064 72.3405 39.7404C69.2896 42.1743 68.7836 46.6281 71.2103 49.6881L112.752 102.072C115.179 105.132 119.619 105.64 122.67 103.206C125.721 100.772 126.227 96.3181 123.8 93.258L82.2584 40.8739Z" fill="white"/>
<path d="M118.285 105.479C117.111 105.482 115.952 105.218 114.894 104.707C113.837 104.197 112.908 103.453 112.178 102.532L70.6357 50.1476C69.349 48.5252 68.7576 46.4566 68.9915 44.3968C69.2254 42.337 70.2656 40.4547 71.8832 39.1641C73.5007 37.8736 75.5632 37.2803 77.6168 37.515C79.6704 37.7496 81.547 38.7929 82.8337 40.4153L124.376 92.8001C125.288 93.95 125.859 95.3349 126.023 96.7956C126.186 98.2563 125.935 99.7336 125.299 101.058C124.663 102.382 123.667 103.499 122.426 104.281C121.186 105.063 119.75 105.479 118.285 105.479ZM76.7286 38.941C75.5396 38.9419 74.3749 39.2791 73.3683 39.9139C72.3617 40.5486 71.554 41.4552 71.0379 42.5296C70.5218 43.6039 70.3182 44.8025 70.4505 45.9877C70.5828 47.1728 71.0457 48.2966 71.7859 49.2298L113.327 101.614C114.372 102.929 115.895 103.774 117.561 103.965C119.227 104.155 120.9 103.675 122.213 102.63C122.863 102.111 123.405 101.469 123.807 100.741C124.21 100.012 124.466 99.2115 124.56 98.3839C124.654 97.5563 124.584 96.7182 124.355 95.9175C124.126 95.1168 123.743 94.3692 123.226 93.7173L81.6842 41.3331C81.0913 40.5855 80.3377 39.9821 79.4795 39.5678C78.6214 39.1536 77.6809 38.9393 76.7286 38.941Z" fill="#262626"/>
<path d="M118.748 100.93C120.217 100.93 121.408 99.7351 121.408 98.2616C121.408 96.7881 120.217 95.5936 118.748 95.5936C117.279 95.5936 116.088 96.7881 116.088 98.2616C116.088 99.7351 117.279 100.93 118.748 100.93Z" fill="white"/>
<path d="M118.741 101.667C118.098 101.666 117.468 101.482 116.926 101.136C116.383 100.79 115.949 100.296 115.675 99.713C115.401 99.1296 115.298 98.4801 115.378 97.8401C115.457 97.2002 115.716 96.596 116.125 96.098C116.533 95.6 117.075 95.2285 117.685 95.0269C118.296 94.8253 118.951 94.8017 119.575 94.9591C120.199 95.1164 120.765 95.4481 121.208 95.9155C121.651 96.383 121.952 96.967 122.077 97.5996C122.174 98.0938 122.161 98.6034 122.038 99.0917C121.915 99.5801 121.686 100.035 121.367 100.424C121.048 100.813 120.647 101.126 120.193 101.341C119.739 101.556 119.243 101.667 118.741 101.667ZM118.752 96.3299C118.355 96.329 117.967 96.4512 117.642 96.6798C117.317 96.9083 117.07 97.2321 116.936 97.6068C116.801 97.9815 116.786 98.3887 116.891 98.7727C116.996 99.1567 117.217 99.4987 117.524 99.7518C117.83 100.005 118.207 100.157 118.603 100.187C118.999 100.217 119.394 100.123 119.735 99.9187C120.076 99.7145 120.345 99.4095 120.507 99.0456C120.668 98.6818 120.713 98.2768 120.636 97.8861C120.549 97.4484 120.314 97.0543 119.971 96.7707C119.628 96.487 119.197 96.3313 118.752 96.3299Z" fill="#262626"/>
<path d="M158.041 141.196C158.041 138.149 155.579 135.679 152.541 135.679C149.503 135.679 147.041 138.149 147.041 141.196V193.354C147.041 196.401 149.503 198.871 152.541 198.871C155.579 198.871 158.041 196.401 158.041 193.354V141.196Z" fill="white"/>
<path d="M105.461 140.659C104.994 137.648 102.182 135.587 99.1809 136.055C96.1793 136.523 94.1245 139.343 94.5912 142.354L102.581 193.892C103.047 196.903 105.859 198.964 108.861 198.496C111.862 198.028 113.917 195.208 113.45 192.197L105.461 140.659Z" fill="white"/>
<path d="M192.766 192.197C192.3 195.207 194.355 198.028 197.356 198.496C200.358 198.964 203.169 196.903 203.636 193.892L211.626 142.353C212.092 139.343 210.038 136.522 207.036 136.054C204.034 135.586 201.223 137.647 200.756 140.658L192.766 192.197Z" fill="white"/>
<path d="M242.132 246.931C260.058 246.931 274.59 232.355 274.59 214.375C274.59 196.395 260.058 181.819 242.132 181.819C224.206 181.819 209.674 196.395 209.674 214.375C209.674 232.355 224.206 246.931 242.132 246.931Z" fill="white"/>
<path d="M242.132 247.667C235.567 247.667 229.149 245.714 223.691 242.055C218.232 238.397 213.978 233.197 211.466 227.114C208.954 221.03 208.297 214.336 209.577 207.878C210.858 201.42 214.02 195.488 218.662 190.832C223.304 186.176 229.219 183.005 235.657 181.721C242.096 180.436 248.77 181.096 254.835 183.616C260.9 186.136 266.084 190.403 269.732 195.878C273.379 201.353 275.325 207.79 275.325 214.375C275.315 223.201 271.815 231.664 265.592 237.905C259.369 244.146 250.932 247.657 242.132 247.667ZM242.132 182.555C235.857 182.555 229.724 184.421 224.507 187.918C219.29 191.414 215.224 196.383 212.823 202.198C210.422 208.012 209.794 214.409 211.018 220.582C212.242 226.754 215.264 232.423 219.7 236.873C224.137 241.323 229.79 244.354 235.943 245.582C242.097 246.809 248.475 246.179 254.272 243.771C260.069 241.363 265.023 237.285 268.509 232.052C271.995 226.819 273.856 220.668 273.856 214.375C273.846 205.939 270.501 197.851 264.553 191.886C258.606 185.921 250.542 182.565 242.132 182.556V182.555Z" fill="#262626"/>
<path d="M242.108 231.053C240.535 231.088 238.98 230.711 237.596 229.96C236.212 229.209 235.047 228.109 234.216 226.769C232.283 223.913 231.318 219.78 231.318 214.37C231.319 208.959 232.285 204.876 234.216 202.12C235.101 200.842 236.283 199.798 237.658 199.078C239.034 198.359 240.563 197.984 242.114 197.986C243.666 197.989 245.194 198.368 246.567 199.092C247.941 199.817 249.118 200.864 250 202.145C251.93 204.917 252.896 208.993 252.897 214.37C252.897 219.78 251.931 223.913 250 226.769C249.168 228.109 248.003 229.208 246.62 229.959C245.236 230.71 243.681 231.087 242.108 231.053ZM242.108 226.544C242.861 226.548 243.599 226.33 244.23 225.918C244.969 225.393 245.548 224.673 245.904 223.839C246.438 222.642 246.808 221.377 247.003 220.081C247.295 218.192 247.429 216.281 247.402 214.37C247.429 212.483 247.295 210.597 247.003 208.733C246.811 207.46 246.441 206.22 245.904 205.05C245.547 204.243 244.966 203.556 244.23 203.071C243.586 202.694 242.854 202.495 242.108 202.495C241.362 202.495 240.629 202.694 239.985 203.071C239.249 203.555 238.668 204.243 238.312 205.05C237.773 206.219 237.403 207.459 237.213 208.733C236.92 210.597 236.786 212.483 236.813 214.37C236.786 216.281 236.92 218.19 237.212 220.079C237.406 221.376 237.776 222.64 238.311 223.837C238.666 224.672 239.246 225.391 239.984 225.916C240.615 226.329 241.354 226.548 242.108 226.544Z" fill="#FA5252"/>
</svg>
