<svg width="524" height="550" viewBox="0 0 524 550" fill="none" xmlns="http://www.w3.org/2000/svg">
<rect x="104.941" y="8.94058" width="314.119" height="314.119" rx="157.059" fill="#E9ECEF"/>
<path d="M203.465 166.663C182.245 162.586 166.213 143.92 166.213 121.51C166.213 96.116 186.799 75.5298 212.193 75.5298C216.273 75.5298 220.228 76.0611 223.994 77.0582C232.415 66.4026 245.453 59.5645 260.089 59.5645C275.152 59.5645 288.523 66.8073 296.909 78.0003C301.584 76.3989 306.599 75.5298 311.817 75.5298C337.21 75.5298 357.797 96.116 357.797 121.51C357.797 143.92 341.765 162.586 320.544 166.663V251.148C320.544 257.027 315.779 261.792 309.901 261.792H214.109C208.23 261.792 203.465 257.027 203.465 251.148V166.663Z" stroke="#C92A2A" stroke-width="10.6435" stroke-linecap="round" stroke-linejoin="round"/>
<path d="M203.457 203.252H320.536" stroke="#C92A2A" stroke-width="10.6435" stroke-linecap="round" stroke-linejoin="round"/>
<path d="M240.723 171.321V203.252" stroke="#C92A2A" stroke-width="10.6435" stroke-linecap="round" stroke-linejoin="round"/>
<path d="M320.541 187.286V219.217" stroke="#C92A2A" stroke-width="10.6435" stroke-linecap="round" stroke-linejoin="round"/>
<path d="M203.457 187.286V219.217" stroke="#C92A2A" stroke-width="10.6435" stroke-linecap="round" stroke-linejoin="round"/>
<rect x="104.941" y="8.94058" width="314.119" height="314.119" rx="157.059" stroke="#F1F3F5" stroke-width="17.8812"/>
<path d="M71.68 446.96C72.96 448.496 73.856 449.733 74.368 450.672C74.88 451.611 75.136 452.507 75.136 453.36C75.136 454.384 74.4533 455.579 73.088 456.944C71.808 458.309 70.528 458.992 69.248 458.992C67.5413 458.992 66.176 458.736 65.152 458.224C64.128 457.712 63.2747 456.901 62.592 455.792C61.2267 453.744 59.5627 451.995 57.6 450.544C55.6373 449.008 52.5653 448.24 48.384 448.24C44.8 448.24 40.704 449.051 36.096 450.672C31.5733 452.293 28.3307 454.299 26.368 456.688C24.6613 458.821 23.168 462.064 21.888 466.416C20.6933 470.768 20.096 474.992 20.096 479.088C20.096 484.037 21.1627 488.603 23.296 492.784C25.5147 496.88 28.672 500.165 32.768 502.64C36.9493 505.115 41.9413 506.352 47.744 506.352C50.9013 506.352 54.144 505.755 57.472 504.56C60.8853 503.28 63.8293 501.232 66.304 498.416H66.176C67.712 496.795 69.632 495.984 71.936 495.984C73.3013 495.984 74.5813 496.581 75.776 497.776C77.056 498.971 77.696 500.165 77.696 501.36C77.696 502.64 77.4827 503.792 77.056 504.816C76.7147 505.755 76.032 506.821 75.008 508.016C71.5093 511.941 67.3707 514.629 62.592 516.08C57.8133 517.531 52.096 518.256 45.44 518.256C39.552 518.256 33.5787 516.848 27.52 514.032C21.5467 511.216 16.9387 507.803 13.696 503.792C11.9893 501.317 10.3253 497.776 8.704 493.168C7.168 488.475 6.4 484.677 6.4 481.776C6.4 474.352 7.50933 467.312 9.728 460.656C12.032 453.915 15.4453 448.539 19.968 444.528C22.9547 441.797 27.264 439.749 32.896 438.384C38.528 437.019 43.6907 436.336 48.384 436.336C54.1013 436.336 58.5813 437.147 61.824 438.768C65.152 440.304 68.4373 443.035 71.68 446.96ZM149.834 516.08C148.725 514.629 147.786 513.051 147.018 511.344C146.25 509.552 145.439 507.419 144.586 504.944C144.415 504.517 143.903 503.237 143.05 501.104C142.282 498.971 141.386 497.136 140.362 495.6C134.986 496.368 130.591 496.752 127.178 496.752C125.301 496.752 123.21 496.709 120.906 496.624C118.687 496.453 117.023 496.368 115.914 496.368C111.647 496.027 108.234 495.856 105.674 495.856C104.65 497.221 103.754 498.672 102.986 500.208C102.303 501.744 101.407 504.048 100.298 507.12C98.762 511.557 97.4393 514.715 96.33 516.592C95.562 517.872 94.0687 518.512 91.85 518.512C89.9727 518.512 88.2233 518.128 86.602 517.36C85.066 516.507 84.298 515.355 84.298 513.904C84.9807 510.661 86.0473 507.248 87.498 503.664C89.034 499.995 91.21 495.131 94.026 489.072L99.146 476.528C101.962 469.36 104.522 463.216 106.826 458.096C109.215 452.976 112.33 446.917 116.17 439.92C116.682 438.896 117.535 438.043 118.73 437.36C119.925 436.592 121.247 436.208 122.698 436.208C124.319 436.208 125.471 436.336 126.154 436.592C126.922 436.763 127.519 437.104 127.946 437.616C128.373 438.043 129.013 438.981 129.866 440.432C132.767 444.955 135.242 449.605 137.29 454.384C139.423 459.163 142.111 465.776 145.354 474.224L148.042 481.008C150.431 487.152 152.479 492.315 154.186 496.496C155.978 500.592 157.941 504.347 160.074 507.76C161.439 509.979 162.122 511.515 162.122 512.368C162.122 514.416 161.482 515.995 160.202 517.104C159.007 518.128 157.429 518.64 155.466 518.64C152.991 518.64 151.114 517.787 149.834 516.08ZM136.65 485.104C135.285 482.203 133.322 477.168 130.762 470C128.117 462.32 125.471 456.219 122.826 451.696C121.205 455.792 118.815 461.083 115.658 467.568C113.525 471.579 111.093 477.381 108.362 484.976C113.823 485.659 119.711 486 126.026 486C130.549 486 134.09 485.701 136.65 485.104ZM226.845 446.064C226.845 443.589 227.4 441.456 228.509 439.664C229.704 437.787 231.453 436.848 233.757 436.848C235.72 436.848 237.469 437.232 239.005 438C240.541 438.768 241.309 440.048 241.309 441.84C241.309 445.339 241.138 450.245 240.797 456.56C240.456 462.704 240.285 467.269 240.285 470.256C240.285 474.949 240.456 481.221 240.797 489.072C241.138 496.581 241.309 502.085 241.309 505.584C241.309 508.4 241.266 510.491 241.181 511.856C241.181 513.221 240.413 514.587 238.877 515.952C237.426 517.232 235.165 517.872 232.093 517.872C230.472 517.872 229.064 517.616 227.869 517.104C226.76 516.507 225.992 515.867 225.565 515.184C221.554 510.32 215.709 502.043 208.029 490.352C199.41 477.296 192.37 467.312 186.909 460.4C187.592 466.544 187.933 474.053 187.933 482.928C187.933 486.853 187.848 491.973 187.677 498.288C187.592 504.517 187.421 508.613 187.165 510.576C186.824 513.051 186.056 514.971 184.861 516.336C183.752 517.616 181.96 518.256 179.485 518.256C177.608 518.256 176.2 517.744 175.261 516.72C174.408 515.611 173.896 513.733 173.725 511.088C173.64 507.589 173.853 502.341 174.365 495.344C174.45 494.235 174.578 492.315 174.749 489.584C174.92 486.853 175.005 484.421 175.005 482.288C175.005 476.4 174.706 469.659 174.109 462.064C173.597 453.701 173.341 447.515 173.341 443.504C173.341 441.456 174.066 439.877 175.517 438.768C177.053 437.659 178.802 437.104 180.765 437.104C182.472 437.104 184.264 437.531 186.141 438.384C193.48 447.6 203.421 461.339 215.965 479.6L227.997 498.032C228.082 496.667 228.125 494.747 228.125 492.272C228.125 487.92 228.04 483.227 227.869 478.192C227.698 473.157 227.57 469.744 227.485 467.952C227.058 459.675 226.845 452.379 226.845 446.064ZM251.908 443.376C251.908 439.707 254.596 437.872 259.972 437.872C262.276 437.872 266.671 437.957 273.156 438.128C280.324 438.469 285.743 438.64 289.412 438.64C292.399 438.64 296.025 438.469 300.292 438.128C303.193 437.957 305.028 437.872 305.796 437.872C310.489 438.043 314.457 438.896 317.7 440.432C318.639 440.859 319.407 441.371 320.004 441.968C320.601 442.565 320.9 443.547 320.9 444.912C320.9 446.789 320.303 448.411 319.108 449.776C317.913 451.056 316.463 451.696 314.756 451.696C312.879 451.696 310.148 451.44 306.564 450.928C303.407 450.331 300.633 450.032 298.244 450.032C295.94 450.032 294.191 450.075 292.996 450.16C292.74 452.976 292.612 459.717 292.612 470.384C292.612 483.099 292.996 495.984 293.764 509.04L294.02 512.752C294.02 516.251 292.015 518 288.004 518C284.847 518 282.713 517.275 281.604 515.824C280.495 514.288 279.94 511.984 279.94 508.912C279.94 502.853 279.769 495.301 279.428 486.256C279.087 478.747 278.916 473.413 278.916 470.256C278.916 468.123 279.172 461.595 279.684 450.672L264.708 450.8C259.929 450.8 256.601 450.373 254.724 449.52C252.847 448.581 251.908 446.533 251.908 443.376ZM338.89 518.384C336.33 518.384 334.538 517.616 333.514 516.08C332.575 514.544 332.106 512.368 332.106 509.552L332.234 492.912L332.106 490.352C331.679 482.245 331.466 475.547 331.466 470.256L331.978 455.024L332.106 447.344C332.106 444.784 332.191 442.821 332.362 441.456C332.533 440.091 333.087 438.981 334.026 438.128C334.965 437.275 336.458 436.848 338.506 436.848C341.066 436.848 342.901 437.488 344.01 438.768C345.119 439.963 345.674 442.053 345.674 445.04L345.546 447.728C345.205 454.555 345.034 459.717 345.034 463.216C345.034 467.056 345.119 471.579 345.29 476.784C345.461 481.904 345.589 485.531 345.674 487.664C346.101 496.795 346.314 504.645 346.314 511.216C346.314 513.776 345.759 515.611 344.65 516.72C343.626 517.829 341.706 518.384 338.89 518.384ZM418.22 446.064C418.22 443.589 418.775 441.456 419.884 439.664C421.079 437.787 422.828 436.848 425.132 436.848C427.095 436.848 428.844 437.232 430.38 438C431.916 438.768 432.684 440.048 432.684 441.84C432.684 445.339 432.513 450.245 432.172 456.56C431.831 462.704 431.66 467.269 431.66 470.256C431.66 474.949 431.831 481.221 432.172 489.072C432.513 496.581 432.684 502.085 432.684 505.584C432.684 508.4 432.641 510.491 432.556 511.856C432.556 513.221 431.788 514.587 430.252 515.952C428.801 517.232 426.54 517.872 423.468 517.872C421.847 517.872 420.439 517.616 419.244 517.104C418.135 516.507 417.367 515.867 416.94 515.184C412.929 510.32 407.084 502.043 399.404 490.352C390.785 477.296 383.745 467.312 378.284 460.4C378.967 466.544 379.308 474.053 379.308 482.928C379.308 486.853 379.223 491.973 379.052 498.288C378.967 504.517 378.796 508.613 378.54 510.576C378.199 513.051 377.431 514.971 376.236 516.336C375.127 517.616 373.335 518.256 370.86 518.256C368.983 518.256 367.575 517.744 366.636 516.72C365.783 515.611 365.271 513.733 365.1 511.088C365.015 507.589 365.228 502.341 365.74 495.344C365.825 494.235 365.953 492.315 366.124 489.584C366.295 486.853 366.38 484.421 366.38 482.288C366.38 476.4 366.081 469.659 365.484 462.064C364.972 453.701 364.716 447.515 364.716 443.504C364.716 441.456 365.441 439.877 366.892 438.768C368.428 437.659 370.177 437.104 372.14 437.104C373.847 437.104 375.639 437.531 377.516 438.384C384.855 447.6 394.796 461.339 407.34 479.6L419.372 498.032C419.457 496.667 419.5 494.747 419.5 492.272C419.5 487.92 419.415 483.227 419.244 478.192C419.073 473.157 418.945 469.744 418.86 467.952C418.433 459.675 418.22 452.379 418.22 446.064ZM509.459 516.08C508.35 514.629 507.454 513.264 506.771 511.984C506.174 510.619 505.406 508.741 504.467 506.352C502.931 502.512 501.566 499.696 500.371 497.904C495.166 498.672 490.643 499.056 486.803 499.056C484.926 499.056 482.792 499.013 480.403 498.928C478.099 498.843 476.307 498.757 475.027 498.672C470.59 498.331 467.048 498.16 464.403 498.16C463.294 499.525 462.398 500.976 461.715 502.512C461.118 503.963 460.435 505.797 459.667 508.016C458.387 511.771 457.15 514.629 455.955 516.592C455.187 517.872 453.694 518.512 451.475 518.512C449.598 518.512 447.848 518.128 446.227 517.36C444.691 516.507 443.923 515.355 443.923 513.904C444.606 510.661 445.672 507.248 447.123 503.664C448.659 499.995 450.835 495.131 453.651 489.072L458.771 476.528C461.587 469.36 464.147 463.216 466.451 458.096C468.84 452.976 471.955 446.917 475.795 439.92C476.307 438.896 477.16 438.043 478.355 437.36C479.55 436.592 480.872 436.208 482.323 436.208C483.944 436.208 485.096 436.336 485.779 436.592C486.547 436.763 487.144 437.104 487.571 437.616C487.998 438.043 488.638 438.981 489.491 440.432C492.392 444.955 494.867 449.605 496.915 454.384C499.048 459.163 501.736 465.776 504.979 474.224L507.667 481.008C510.056 487.152 512.104 492.315 513.811 496.496C515.603 500.592 517.566 504.347 519.699 507.76C521.064 509.979 521.747 511.515 521.747 512.368C521.747 514.416 521.107 515.995 519.827 517.104C518.632 518.128 517.054 518.64 515.091 518.64C512.616 518.64 510.739 517.787 509.459 516.08ZM496.659 487.408C495.464 484.933 493.886 480.667 491.923 474.608C491.24 472.389 490.728 470.853 490.387 470C487.742 462.32 485.096 456.219 482.451 451.696C480.83 455.792 478.44 461.083 475.283 467.568C473.32 471.237 470.632 477.808 467.219 487.28C472.68 487.963 478.867 488.304 485.779 488.304C490.558 488.304 494.184 488.005 496.659 487.408Z" fill="#F8F9FA"/>
</svg>
