<svg width="171" height="38" viewBox="0 0 171 38" fill="none" xmlns="http://www.w3.org/2000/svg">
<rect x="0.861742" y="3.86174" width="30.2765" height="30.2765" rx="15.1383" fill="#FA5252"/>
<path d="M10.3582 19.0638C8.31283 18.6708 6.76758 16.8717 6.76758 14.7117C6.76758 12.2641 8.75177 10.2799 11.1994 10.2799C11.5926 10.2799 11.9738 10.3311 12.3368 10.4272C13.1485 9.40018 14.4052 8.74109 15.8159 8.74109C17.2677 8.74109 18.5565 9.43919 19.3648 10.518C19.8154 10.3637 20.2987 10.2799 20.8017 10.2799C23.2493 10.2799 25.2335 12.2641 25.2335 14.7117C25.2335 16.8717 23.6883 18.6708 21.6429 19.0638V27.207C21.6429 27.7736 21.1836 28.2329 20.617 28.2329H11.3841C10.8175 28.2329 10.3582 27.7736 10.3582 27.207V19.0638Z" stroke="#F8F9FA" stroke-width="1.02588" stroke-linecap="round" stroke-linejoin="round"/>
<path d="M10.3574 22.5906H21.6421" stroke="#F8F9FA" stroke-width="1.02588" stroke-linecap="round" stroke-linejoin="round"/>
<path d="M13.9492 19.5129V22.5905" stroke="#F8F9FA" stroke-width="1.02588" stroke-linecap="round" stroke-linejoin="round"/>
<path d="M21.6426 21.0517V24.1293" stroke="#F8F9FA" stroke-width="1.02588" stroke-linecap="round" stroke-linejoin="round"/>
<path d="M10.3574 21.0517V24.1293" stroke="#F8F9FA" stroke-width="1.02588" stroke-linecap="round" stroke-linejoin="round"/>
<rect x="0.861742" y="3.86174" width="30.2765" height="30.2765" rx="15.1383" stroke="#C92A2A" stroke-width="1.72348"/>
<path d="M57.92 12.24C58.24 12.624 58.464 12.9333 58.592 13.168C58.72 13.4027 58.784 13.6267 58.784 13.84C58.784 14.096 58.6133 14.3947 58.272 14.736C57.952 15.0773 57.632 15.248 57.312 15.248C56.8853 15.248 56.544 15.184 56.288 15.056C56.032 14.928 55.8187 14.7253 55.648 14.448C55.3067 13.936 54.8907 13.4987 54.4 13.136C53.9093 12.752 53.1413 12.56 52.096 12.56C51.2 12.56 50.176 12.7627 49.024 13.168C47.8933 13.5733 47.0827 14.0747 46.592 14.672C46.1653 15.2053 45.792 16.016 45.472 17.104C45.1733 18.192 45.024 19.248 45.024 20.272C45.024 21.5093 45.2907 22.6507 45.824 23.696C46.3787 24.72 47.168 25.5413 48.192 26.16C49.2373 26.7787 50.4853 27.088 51.936 27.088C52.7253 27.088 53.536 26.9387 54.368 26.64C55.2213 26.32 55.9573 25.808 56.576 25.104H56.544C56.928 24.6987 57.408 24.496 57.984 24.496C58.3253 24.496 58.6453 24.6453 58.944 24.944C59.264 25.2427 59.424 25.5413 59.424 25.84C59.424 26.16 59.3707 26.448 59.264 26.704C59.1787 26.9387 59.008 27.2053 58.752 27.504C57.8773 28.4853 56.8427 29.1573 55.648 29.52C54.4533 29.8827 53.024 30.064 51.36 30.064C49.888 30.064 48.3947 29.712 46.88 29.008C45.3867 28.304 44.2347 27.4507 43.424 26.448C42.9973 25.8293 42.5813 24.944 42.176 23.792C41.792 22.6187 41.6 21.6693 41.6 20.944C41.6 19.088 41.8773 17.328 42.432 15.664C43.008 13.9787 43.8613 12.6347 44.992 11.632C45.7387 10.9493 46.816 10.4373 48.224 10.096C49.632 9.75467 50.9227 9.584 52.096 9.584C53.5253 9.584 54.6453 9.78667 55.456 10.192C56.288 10.576 57.1093 11.2587 57.92 12.24ZM77.4585 29.52C77.1812 29.1573 76.9465 28.7627 76.7545 28.336C76.5625 27.888 76.3598 27.3547 76.1465 26.736C76.1038 26.6293 75.9758 26.3093 75.7625 25.776C75.5705 25.2427 75.3465 24.784 75.0905 24.4C73.7465 24.592 72.6478 24.688 71.7945 24.688C71.3252 24.688 70.8025 24.6773 70.2265 24.656C69.6718 24.6133 69.2558 24.592 68.9785 24.592C67.9118 24.5067 67.0585 24.464 66.4185 24.464C66.1625 24.8053 65.9385 25.168 65.7465 25.552C65.5758 25.936 65.3518 26.512 65.0745 27.28C64.6905 28.3893 64.3598 29.1787 64.0825 29.648C63.8905 29.968 63.5172 30.128 62.9625 30.128C62.4932 30.128 62.0558 30.032 61.6505 29.84C61.2665 29.6267 61.0745 29.3387 61.0745 28.976C61.2452 28.1653 61.5118 27.312 61.8745 26.416C62.2585 25.4987 62.8025 24.2827 63.5065 22.768L64.7865 19.632C65.4905 17.84 66.1305 16.304 66.7065 15.024C67.3038 13.744 68.0825 12.2293 69.0425 10.48C69.1705 10.224 69.3838 10.0107 69.6825 9.84C69.9812 9.648 70.3118 9.552 70.6745 9.552C71.0798 9.552 71.3678 9.584 71.5385 9.648C71.7305 9.69067 71.8798 9.776 71.9865 9.904C72.0932 10.0107 72.2532 10.2453 72.4665 10.608C73.1918 11.7387 73.8105 12.9013 74.3225 14.096C74.8558 15.2907 75.5278 16.944 76.3385 19.056L77.0105 20.752C77.6078 22.288 78.1198 23.5787 78.5465 24.624C78.9945 25.648 79.4852 26.5867 80.0185 27.44C80.3598 27.9947 80.5305 28.3787 80.5305 28.592C80.5305 29.104 80.3705 29.4987 80.0505 29.776C79.7518 30.032 79.3572 30.16 78.8665 30.16C78.2478 30.16 77.7785 29.9467 77.4585 29.52ZM74.1625 21.776C73.8212 21.0507 73.3305 19.792 72.6905 18C72.0292 16.08 71.3678 14.5547 70.7065 13.424C70.3012 14.448 69.7038 15.7707 68.9145 17.392C68.3812 18.3947 67.7732 19.8453 67.0905 21.744C68.4558 21.9147 69.9278 22 71.5065 22C72.6372 22 73.5225 21.9253 74.1625 21.776ZM96.7113 12.016C96.7113 11.3973 96.8499 10.864 97.1273 10.416C97.4259 9.94667 97.8633 9.712 98.4393 9.712C98.9299 9.712 99.3673 9.808 99.7513 10C100.135 10.192 100.327 10.512 100.327 10.96C100.327 11.8347 100.285 13.0613 100.199 14.64C100.114 16.176 100.071 17.3173 100.071 18.064C100.071 19.2373 100.114 20.8053 100.199 22.768C100.285 24.6453 100.327 26.0213 100.327 26.896C100.327 27.6 100.317 28.1227 100.295 28.464C100.295 28.8053 100.103 29.1467 99.7193 29.488C99.3566 29.808 98.7913 29.968 98.0233 29.968C97.6179 29.968 97.2659 29.904 96.9673 29.776C96.6899 29.6267 96.4979 29.4667 96.3913 29.296C95.3886 28.08 93.9273 26.0107 92.0073 23.088C89.8526 19.824 88.0926 17.328 86.7273 15.6C86.8979 17.136 86.9833 19.0133 86.9833 21.232C86.9833 22.2133 86.9619 23.4933 86.9193 25.072C86.8979 26.6293 86.8553 27.6533 86.7913 28.144C86.7059 28.7627 86.5139 29.2427 86.2153 29.584C85.9379 29.904 85.4899 30.064 84.8713 30.064C84.4019 30.064 84.0499 29.936 83.8153 29.68C83.6019 29.4027 83.4739 28.9333 83.4313 28.272C83.4099 27.3973 83.4633 26.0853 83.5913 24.336C83.6126 24.0587 83.6446 23.5787 83.6873 22.896C83.7299 22.2133 83.7513 21.6053 83.7513 21.072C83.7513 19.6 83.6766 17.9147 83.5273 16.016C83.3993 13.9253 83.3353 12.3787 83.3353 11.376C83.3353 10.864 83.5166 10.4693 83.8793 10.192C84.2633 9.91467 84.7006 9.776 85.1913 9.776C85.6179 9.776 86.0659 9.88267 86.5353 10.096C88.3699 12.4 90.8553 15.8347 93.9913 20.4L96.9993 25.008C97.0206 24.6667 97.0312 24.1867 97.0312 23.568C97.0312 22.48 97.0099 21.3067 96.9673 20.048C96.9246 18.7893 96.8926 17.936 96.8713 17.488C96.7646 15.4187 96.7113 13.5947 96.7113 12.016ZM102.977 11.344C102.977 10.4267 103.649 9.968 104.993 9.968C105.569 9.968 106.668 9.98933 108.289 10.032C110.081 10.1173 111.436 10.16 112.353 10.16C113.1 10.16 114.006 10.1173 115.073 10.032C115.798 9.98933 116.257 9.968 116.449 9.968C117.622 10.0107 118.614 10.224 119.425 10.608C119.66 10.7147 119.852 10.8427 120.001 10.992C120.15 11.1413 120.225 11.3867 120.225 11.728C120.225 12.1973 120.076 12.6027 119.777 12.944C119.478 13.264 119.116 13.424 118.689 13.424C118.22 13.424 117.537 13.36 116.641 13.232C115.852 13.0827 115.158 13.008 114.561 13.008C113.985 13.008 113.548 13.0187 113.249 13.04C113.185 13.744 113.153 15.4293 113.153 18.096C113.153 21.2747 113.249 24.496 113.441 27.76L113.505 28.688C113.505 29.5627 113.004 30 112.001 30C111.212 30 110.678 29.8187 110.401 29.456C110.124 29.072 109.985 28.496 109.985 27.728C109.985 26.2133 109.942 24.3253 109.857 22.064C109.772 20.1867 109.729 18.8533 109.729 18.064C109.729 17.5307 109.793 15.8987 109.921 13.168L106.177 13.2C104.982 13.2 104.15 13.0933 103.681 12.88C103.212 12.6453 102.977 12.1333 102.977 11.344ZM124.723 30.096C124.083 30.096 123.635 29.904 123.379 29.52C123.144 29.136 123.027 28.592 123.027 27.888L123.059 23.728L123.027 23.088C122.92 21.0613 122.867 19.3867 122.867 18.064L122.995 14.256L123.027 12.336C123.027 11.696 123.048 11.2053 123.091 10.864C123.133 10.5227 123.272 10.2453 123.507 10.032C123.741 9.81867 124.115 9.712 124.627 9.712C125.267 9.712 125.725 9.872 126.003 10.192C126.28 10.4907 126.419 11.0133 126.419 11.76L126.387 12.432C126.301 14.1387 126.259 15.4293 126.259 16.304C126.259 17.264 126.28 18.3947 126.323 19.696C126.365 20.976 126.397 21.8827 126.419 22.416C126.525 24.6987 126.579 26.6613 126.579 28.304C126.579 28.944 126.44 29.4027 126.163 29.68C125.907 29.9573 125.427 30.096 124.723 30.096ZM144.555 12.016C144.555 11.3973 144.694 10.864 144.971 10.416C145.27 9.94667 145.707 9.712 146.283 9.712C146.774 9.712 147.211 9.808 147.595 10C147.979 10.192 148.171 10.512 148.171 10.96C148.171 11.8347 148.128 13.0613 148.043 14.64C147.958 16.176 147.915 17.3173 147.915 18.064C147.915 19.2373 147.958 20.8053 148.043 22.768C148.128 24.6453 148.171 26.0213 148.171 26.896C148.171 27.6 148.16 28.1227 148.139 28.464C148.139 28.8053 147.947 29.1467 147.563 29.488C147.2 29.808 146.635 29.968 145.867 29.968C145.462 29.968 145.11 29.904 144.811 29.776C144.534 29.6267 144.342 29.4667 144.235 29.296C143.232 28.08 141.771 26.0107 139.851 23.088C137.696 19.824 135.936 17.328 134.571 15.6C134.742 17.136 134.827 19.0133 134.827 21.232C134.827 22.2133 134.806 23.4933 134.763 25.072C134.742 26.6293 134.699 27.6533 134.635 28.144C134.55 28.7627 134.358 29.2427 134.059 29.584C133.782 29.904 133.334 30.064 132.715 30.064C132.246 30.064 131.894 29.936 131.659 29.68C131.446 29.4027 131.318 28.9333 131.275 28.272C131.254 27.3973 131.307 26.0853 131.435 24.336C131.456 24.0587 131.488 23.5787 131.531 22.896C131.574 22.2133 131.595 21.6053 131.595 21.072C131.595 19.6 131.52 17.9147 131.371 16.016C131.243 13.9253 131.179 12.3787 131.179 11.376C131.179 10.864 131.36 10.4693 131.723 10.192C132.107 9.91467 132.544 9.776 133.035 9.776C133.462 9.776 133.91 9.88267 134.379 10.096C136.214 12.4 138.699 15.8347 141.835 20.4L144.843 25.008C144.864 24.6667 144.875 24.1867 144.875 23.568C144.875 22.48 144.854 21.3067 144.811 20.048C144.768 18.7893 144.736 17.936 144.715 17.488C144.608 15.4187 144.555 13.5947 144.555 12.016ZM167.365 29.52C167.087 29.1573 166.863 28.816 166.693 28.496C166.543 28.1547 166.351 27.6853 166.117 27.088C165.733 26.128 165.391 25.424 165.093 24.976C163.791 25.168 162.661 25.264 161.701 25.264C161.231 25.264 160.698 25.2533 160.101 25.232C159.525 25.2107 159.077 25.1893 158.757 25.168C157.647 25.0827 156.762 25.04 156.101 25.04C155.823 25.3813 155.599 25.744 155.429 26.128C155.279 26.4907 155.109 26.9493 154.917 27.504C154.597 28.4427 154.287 29.1573 153.989 29.648C153.797 29.968 153.423 30.128 152.869 30.128C152.399 30.128 151.962 30.032 151.557 29.84C151.173 29.6267 150.981 29.3387 150.981 28.976C151.151 28.1653 151.418 27.312 151.781 26.416C152.165 25.4987 152.709 24.2827 153.413 22.768L154.693 19.632C155.397 17.84 156.037 16.304 156.613 15.024C157.21 13.744 157.989 12.2293 158.949 10.48C159.077 10.224 159.29 10.0107 159.589 9.84C159.887 9.648 160.218 9.552 160.581 9.552C160.986 9.552 161.274 9.584 161.445 9.648C161.637 9.69067 161.786 9.776 161.893 9.904C161.999 10.0107 162.159 10.2453 162.373 10.608C163.098 11.7387 163.717 12.9013 164.229 14.096C164.762 15.2907 165.434 16.944 166.245 19.056L166.917 20.752C167.514 22.288 168.026 23.5787 168.453 24.624C168.901 25.648 169.391 26.5867 169.925 27.44C170.266 27.9947 170.437 28.3787 170.437 28.592C170.437 29.104 170.277 29.4987 169.957 29.776C169.658 30.032 169.263 30.16 168.773 30.16C168.154 30.16 167.685 29.9467 167.365 29.52ZM164.165 22.352C163.866 21.7333 163.471 20.6667 162.981 19.152C162.81 18.5973 162.682 18.2133 162.597 18C161.935 16.08 161.274 14.5547 160.613 13.424C160.207 14.448 159.61 15.7707 158.821 17.392C158.33 18.3093 157.658 19.952 156.805 22.32C158.17 22.4907 159.717 22.576 161.445 22.576C162.639 22.576 163.546 22.5013 164.165 22.352Z" fill="#212529"/>
</svg>
